<?xml version="1.0" encoding="UTF-8" standalone="no"?><!DOCTYPE svg PUBLIC "-//W3C//DTD SVG 1.1//EN" "http://www.w3.org/Graphics/SVG/1.1/DTD/svg11.dtd"><svg width="100%" height="100%" viewBox="0 0 114 114" version="1.1" xmlns="http://www.w3.org/2000/svg" xmlns:xlink="http://www.w3.org/1999/xlink" xml:space="preserve" xmlns:serif="http://www.serif.com/" style="fill-rule:evenodd;clip-rule:evenodd;stroke-linejoin:round;stroke-miterlimit:2;"><rect id="Attention_R" x="0.963" y="0.929" width="112.205" height="112.205" style="fill:none;"/><clipPath id="_clip1"><rect x="0.963" y="0.929" width="112.205" height="112.205"/></clipPath><g clip-path="url(#_clip1)"><g><g><path d="M49.86,8.821l14.411,0l44.407,86.222l-6.804,10.198l-89.617,0l-6.804,-10.198l44.407,-86.222Z" style="fill:#fff;"/><path d="M66.634,4.946l-19.137,-0l-46.534,90.35l9.221,13.821l93.763,-0l9.221,-13.821l-46.534,-90.35Zm-9.568,96.419l-42.735,0c-0,0 -4.388,-6.576 -4.388,-6.576c0,0 42.281,-82.092 42.281,-82.092c-0,-0 4.842,-0 4.842,-0l4.842,-0c-0,-0 42.28,82.092 42.28,82.092c0,0 -4.387,6.576 -4.387,6.576l-42.735,0Z" style="fill:#e1626b;"/><rect x="50.076" y="78.523" width="13.979" height="13.979" style="fill:#e1626b;"/><rect x="50.076" y="37.495" width="13.979" height="35.658" style="fill:#e1626b;"/></g></g></g></svg>