<?xml version="1.0" encoding="UTF-8" standalone="no"?><!DOCTYPE svg PUBLIC "-//W3C//DTD SVG 1.1//EN" "http://www.w3.org/Graphics/SVG/1.1/DTD/svg11.dtd"><svg width="100%" height="100%" viewBox="0 0 113 113" version="1.1" xmlns="http://www.w3.org/2000/svg" xmlns:xlink="http://www.w3.org/1999/xlink" xml:space="preserve" xmlns:serif="http://www.serif.com/" style="fill-rule:evenodd;clip-rule:evenodd;stroke-linejoin:round;stroke-miterlimit:2;"><rect id="Book_C" x="0.314" y="0.208" width="112.205" height="112.205" style="fill:none;"/><clipPath id="_clip1"><rect x="0.314" y="0.208" width="112.205" height="112.205"/></clipPath><g clip-path="url(#_clip1)"><g><path d="M14.175,21.061c14.079,-6.143 28.159,-6.174 42.241,-0.342c14.082,-5.832 28.162,-5.801 42.241,0.342l9.983,-0c2.142,-0 3.878,1.736 3.878,3.879l0,67.386c0,2.142 -1.736,3.879 -3.878,3.879l-104.448,-0c-2.142,-0 -3.878,-1.737 -3.878,-3.879l-0,-67.386c-0,-2.143 1.736,-3.879 3.878,-3.879l9.983,-0Zm87.539,7.757l3.047,0l0,59.63l-3.047,-0l-0,-59.63Zm-90.595,0l-0,59.63l-3.048,-0c-0,-0 -0,-59.63 -0,-59.63l3.048,0Zm49.176,58.409l-0,-59.708c11.22,-4.404 22.441,-4.473 33.661,-0.014c0,-0 0,59.171 0,59.171c-9.547,-2.923 -20.832,-2.679 -33.661,0.551l-0,0Zm-7.757,0l-0.001,0c-12.829,-3.23 -24.113,-3.474 -33.661,-0.551c-0,-0 -0,-59.171 -0,-59.171c11.22,-4.459 22.441,-4.39 33.661,0.014l0.001,59.708Z" style="fill:#5ca4b2;"/></g></g></svg>