<?xml version="1.0" encoding="UTF-8" standalone="no"?><!DOCTYPE svg PUBLIC "-//W3C//DTD SVG 1.1//EN" "http://www.w3.org/Graphics/SVG/1.1/DTD/svg11.dtd"><svg width="100%" height="100%" viewBox="0 0 178 178" version="1.1" xmlns="http://www.w3.org/2000/svg" xmlns:xlink="http://www.w3.org/1999/xlink" xml:space="preserve" xmlns:serif="http://www.serif.com/" style="fill-rule:evenodd;clip-rule:evenodd;stroke-linejoin:round;stroke-miterlimit:2;"><rect id="Draw_C" x="0.483" y="0.824" width="177.165" height="177.165" style="fill:none;"/><g><path d="M149.78,12.635l-100.604,-0c-0.007,-0 -0.013,-0 -0.02,0c-19.198,0.043 -29.673,6.771 -29.673,21.615c-0,16.084 13.968,20.78 29.699,20.769c-0.006,0 36.139,0 36.139,0c4.895,0 8.869,-3.974 8.869,-8.869c0,-4.894 -3.974,-8.868 -8.869,-8.868l-36.151,-0c-3.364,0.002 -6.735,-0.082 -9.56,-0.827c-1.215,-0.321 -2.39,-0.726 -2.39,-2.205c0,-0.705 -0.01,-1.307 0.293,-1.755c0.646,-0.952 1.955,-1.107 3.42,-1.425c2.356,-0.513 5.135,-0.69 8.256,-0.698c-0,0 100.591,0 100.591,0c4.894,0 8.868,-3.974 8.868,-8.868c0,-4.895 -3.974,-8.869 -8.868,-8.869Z" style="fill:#5ca4b2;"/><path d="M80.672,163.001c0,-13.511 -15.316,-8.387 -17.387,-23.868c-3.508,-26.224 -14.815,-21.812 0.808,-50.99c2.357,-4.402 10.705,-5.639 10.705,-5.639l-0,14.063l-0,-35.478c-0,-14.626 -3.508,-24.283 12.243,-24.283c15.94,-0 5.421,26.498 15.94,42.913c21.045,-15.955 18.616,3.955 28.936,4.738c6.374,0.484 22.052,2.216 16.807,28.483c-9.071,45.433 -26.744,22.187 -26.744,49.896l-41.308,0.165Z" style="fill:#fff;"/><path d="M71.62,79.95c-1.183,0.314 -2.622,0.771 -4.041,1.408c-2.588,1.161 -5.031,2.94 -6.287,5.286c-10.144,18.946 -9.458,24.877 -6.737,32.663c1.627,4.654 4.22,10.07 5.581,20.247c1.219,9.116 6.225,12.249 11.039,15.008c3.143,1.802 6.32,3.245 6.32,8.439c-0,0.845 0.336,1.655 0.935,2.251c0.599,0.596 1.41,0.93 2.255,0.926l41.308,-0.165c1.749,-0.007 3.164,-1.427 3.164,-3.177c0,-5.905 0.746,-9.137 2.279,-11.205c1.546,-2.087 3.763,-2.94 6.149,-4.372c5.948,-3.569 13.396,-9.359 18.255,-33.697c2.331,-11.675 0.702,-18.966 -2.257,-23.573c-4.672,-7.273 -12.953,-8.361 -17.426,-8.7c-1.595,-0.121 -2.664,-1.048 -3.636,-2.098c-0.96,-1.038 -1.817,-2.225 -2.72,-3.338c-1.825,-2.247 -3.861,-4.176 -6.587,-5.022c-3.299,-1.022 -7.983,-0.544 -15.157,4.222c-1.733,-3.815 -2.517,-8.036 -2.988,-12.2c-0.657,-5.798 -0.703,-11.514 -1.421,-16.155c-0.703,-4.55 -2.134,-8.169 -4.711,-10.406c-1.895,-1.646 -4.418,-2.663 -7.896,-2.663c-5.775,-0 -9.373,1.279 -11.663,3.249c-2.333,2.007 -3.508,4.812 -3.908,8.408c-0.459,4.134 0.15,9.521 0.15,15.803l0,18.861Zm0,6.635l0,9.982l6.355,0l-0,-35.478c-0,-4.394 -0.316,-8.34 -0.333,-11.711c-0.015,-3.045 0.049,-5.535 1.421,-7.213c1.336,-1.633 3.818,-2.182 7.978,-2.182c1.624,0 2.846,0.339 3.731,1.108c1.595,1.384 2.161,3.761 2.596,6.578c0.706,4.567 0.741,10.193 1.387,15.899c0.705,6.231 2.132,12.531 5.551,17.866c0.478,0.746 1.246,1.258 2.118,1.413c0.873,0.156 1.77,-0.06 2.477,-0.596c3.353,-2.542 6.035,-4.113 8.255,-4.923c1.66,-0.606 2.952,-0.757 4.03,-0.469c1.013,0.27 1.783,0.914 2.497,1.647c1.051,1.078 1.966,2.364 2.943,3.568c2.328,2.871 4.997,5.244 9.05,5.551c3.177,0.241 9.242,0.632 12.56,5.798c2.367,3.686 3.237,9.555 1.373,18.895c-2.574,12.891 -5.786,19.972 -9.153,24.227c-3.253,4.11 -6.611,5.464 -9.334,7.133c-1.972,1.208 -3.687,2.546 -5.07,4.559c-1.629,2.371 -2.84,5.777 -3.164,11.434l-35.294,0.141c-0.816,-4.722 -3.495,-7.21 -6.742,-9.273c-3.945,-2.506 -9.354,-3.878 -10.417,-11.827c-1.095,-8.183 -2.917,-13.499 -4.497,-17.749c-1.296,-3.49 -2.459,-6.149 -2.682,-9.298c-0.341,-4.802 1.535,-10.623 7.638,-22.022c0.63,-1.177 1.987,-1.905 3.286,-2.487c0.483,-0.217 0.97,-0.407 1.44,-0.571Z" style="fill:#808080;"/></g></svg>