<?xml version="1.0" encoding="UTF-8" standalone="no"?><!DOCTYPE svg PUBLIC "-//W3C//DTD SVG 1.1//EN" "http://www.w3.org/Graphics/SVG/1.1/DTD/svg11.dtd"><svg width="100%" height="100%" viewBox="0 0 101 101" version="1.1" xmlns="http://www.w3.org/2000/svg" xmlns:xlink="http://www.w3.org/1999/xlink" xml:space="preserve" xmlns:serif="http://www.serif.com/" style="fill-rule:evenodd;clip-rule:evenodd;stroke-linejoin:round;stroke-miterlimit:2;"><rect id="Info_C" x="0.353" y="0.419" width="100.394" height="100.394" style="fill:none;"/><g><circle cx="50.55" cy="50.616" r="43.486" style="fill:#fff;"/><path d="M50.55,2.781c-26.401,0 -47.835,21.434 -47.835,47.835c0,26.401 21.434,47.835 47.835,47.835c26.401,-0 47.835,-21.434 47.835,-47.835c-0,-26.401 -21.434,-47.835 -47.835,-47.835Zm-0,8.698c21.601,-0 39.137,17.537 39.137,39.137c0,21.601 -17.536,39.138 -39.137,39.138c-21.601,-0 -39.137,-17.537 -39.137,-39.138c-0,-21.6 17.536,-39.137 39.137,-39.137Z" style="fill:#5ca4b2;"/><rect x="43.402" y="24.378" width="14.219" height="14.219" style="fill:#5ca4b2;"/><rect x="43.402" y="44.003" width="14.219" height="35.345" style="fill:#5ca4b2;"/></g></svg>