<?xml version="1.0" encoding="UTF-8" standalone="no"?><!DOCTYPE svg PUBLIC "-//W3C//DTD SVG 1.1//EN" "http://www.w3.org/Graphics/SVG/1.1/DTD/svg11.dtd"><svg width="100%" height="100%" viewBox="0 0 113 114" version="1.1" xmlns="http://www.w3.org/2000/svg" xmlns:xlink="http://www.w3.org/1999/xlink" xml:space="preserve" xmlns:serif="http://www.serif.com/" style="fill-rule:evenodd;clip-rule:evenodd;stroke-linejoin:round;stroke-miterlimit:2;"><rect id="Lang_C" x="0.346" y="0.929" width="112.205" height="112.205" style="fill:none;"/><clipPath id="_clip1"><rect x="0.346" y="0.929" width="112.205" height="112.205"/></clipPath><g clip-path="url(#_clip1)"><g><path d="M61.234,35.434c-1.589,0.064 -3.908,0.096 -6.956,0.096c-3.729,0 -7.118,-0.032 -10.166,-0.096l-0,-8.917c4.248,0.256 8.091,0.384 11.528,0.384l6.08,-0c0.13,-2.141 0.406,-6.2 0.827,-12.177l10.555,0.576c-0.259,2.556 -0.664,6.328 -1.216,11.313c11.934,-0.447 22.489,-1.262 31.666,-2.445l0,8.821c-10.831,1.055 -21.613,1.774 -32.347,2.158c-0.324,4.25 -0.486,8.054 -0.486,11.409c3.956,-1.054 8.399,-1.582 13.328,-1.582c0.486,-1.63 0.989,-3.723 1.508,-6.28l9.436,1.678c-0.292,1.247 -0.811,3.068 -1.556,5.465c6.42,1.375 11.349,4.571 14.787,9.588c2.886,4.123 4.329,8.917 4.329,14.382c-0,9.908 -3.567,17.354 -10.701,22.34c-5.124,3.58 -12.29,5.977 -21.5,7.191l-4.183,-8.917c9.728,-1.054 16.635,-3.483 20.721,-7.287c3.34,-3.068 5.01,-7.222 5.01,-12.464c0,-5.337 -1.248,-9.54 -3.745,-12.608c-1.881,-2.365 -4.264,-3.819 -7.15,-4.363c-4.638,13.551 -10.377,24.018 -17.22,31.401c-6.355,6.807 -12.792,10.211 -19.31,10.211c-9.437,0 -14.155,-4.906 -14.155,-14.717c-0,-7.032 2.173,-13.487 6.518,-19.368c3.664,-4.922 8.366,-8.709 14.106,-11.362c-0,-4.794 0.097,-9.604 0.292,-14.43Zm10.361,38.496c4.539,-6.68 7.928,-13.711 10.166,-21.094c-3.827,0 -7.686,0.624 -11.577,1.87c-0,8.31 0.47,14.718 1.411,19.224Zm-7.248,8.054c-1.848,-5.977 -2.951,-13.631 -3.308,-22.963c-3.664,2.493 -6.534,5.625 -8.609,9.396c-1.914,3.452 -2.87,7.031 -2.87,10.738c-0,4.954 1.832,7.431 5.496,7.431c2.886,0 5.983,-1.534 9.291,-4.602Z" style="fill:#5ca4b2;fill-rule:nonzero;"/><path d="M0.346,98.921l26.425,-78.649l17.219,0l26.538,78.649l-13.752,0l-6.024,-18.128l-31.198,0l-5.967,18.128l-13.241,0Zm23.015,-30.004l23.413,-0l-11.65,-35.404l-11.763,35.404Z" style="fill:#fff;fill-rule:nonzero;"/></g></g></svg>