<?xml version="1.0" encoding="UTF-8" standalone="no"?><!DOCTYPE svg PUBLIC "-//W3C//DTD SVG 1.1//EN" "http://www.w3.org/Graphics/SVG/1.1/DTD/svg11.dtd"><svg width="100%" height="100%" viewBox="0 0 178 178" version="1.1" xmlns="http://www.w3.org/2000/svg" xmlns:xlink="http://www.w3.org/1999/xlink" xml:space="preserve" xmlns:serif="http://www.serif.com/" style="fill-rule:evenodd;clip-rule:evenodd;stroke-linejoin:round;stroke-miterlimit:2;"><rect id="Langbox_C" x="0.072" y="0.824" width="177.165" height="177.165" style="fill:none;"/><clipPath id="_clip1"><rect x="0.072" y="0.824" width="177.165" height="177.165"/></clipPath><g clip-path="url(#_clip1)"><g><path d="M177.237,4.998c0,-2.305 -1.908,-4.174 -4.263,-4.174l-168.638,-0c-2.355,-0 -4.264,1.869 -4.264,4.174l0,168.817c0,2.305 1.909,4.174 4.264,4.174l168.638,0c2.355,0 4.263,-1.869 4.263,-4.174l0,-168.817Zm-8.527,4.175l0,160.468c0,-0 -160.111,-0 -160.111,-0c0,-0 0,-160.468 0,-160.468c23.463,-0 136.648,-0 160.111,-0l0,-0Z" style="fill:#5ca4b2;"/><g><path d="M26.155,137.121l29.438,-89.584l19.182,0l29.565,89.584l-15.321,-0l-6.71,-20.649l-34.756,0l-6.648,20.649l-14.75,-0Zm25.639,-34.177l26.083,0l-12.978,-40.325l-13.105,40.325Z" style="fill:#808080;fill-rule:nonzero;"/><path d="M93.986,64.807c-1.77,0.073 -4.353,0.109 -7.749,0.109c-4.155,0 -7.93,-0.036 -11.325,-0.109l-0,-10.156c4.732,0.291 9.013,0.437 12.842,0.437l6.774,-0c0.144,-2.439 0.451,-7.063 0.921,-13.87l11.759,0.655c-0.289,2.913 -0.741,7.208 -1.355,12.887c13.294,-0.51 25.053,-1.438 35.277,-2.785l-0,10.047c-12.066,1.202 -24.078,2.021 -36.035,2.458c-0.362,4.841 -0.542,9.173 -0.542,12.996c4.407,-1.202 9.356,-1.802 14.847,-1.802c0.542,-1.857 1.102,-4.241 1.68,-7.154l10.513,1.912c-0.325,1.419 -0.903,3.494 -1.734,6.224c7.153,1.566 12.644,5.206 16.473,10.921c3.215,4.696 4.823,10.157 4.823,16.382c-0,11.285 -3.974,19.767 -11.922,25.446c-5.708,4.077 -13.691,6.807 -23.951,8.19l-4.66,-10.156c10.837,-1.202 18.532,-3.968 23.084,-8.3c3.721,-3.495 5.582,-8.227 5.582,-14.197c-0,-6.08 -1.391,-10.867 -4.173,-14.361c-2.095,-2.694 -4.751,-4.351 -7.966,-4.969c-5.166,15.435 -11.56,27.357 -19.182,35.766c-7.081,7.754 -14.252,11.63 -21.513,11.63c-10.513,0 -15.769,-5.587 -15.769,-16.763c-0,-8.009 2.42,-15.362 7.261,-22.06c4.082,-5.607 9.321,-9.92 15.715,-12.942c-0,-5.46 0.108,-10.939 0.325,-16.436Zm11.542,43.848c5.058,-7.608 8.833,-15.617 11.325,-24.026c-4.262,-0 -8.561,0.71 -12.896,2.129c-0,9.465 0.523,16.764 1.571,21.897Zm-8.074,9.173c-2.059,-6.807 -3.287,-15.526 -3.685,-26.155c-4.082,2.839 -7.279,6.407 -9.591,10.702c-2.132,3.932 -3.197,8.009 -3.197,12.232c-0,5.642 2.041,8.463 6.123,8.463c3.215,0 6.665,-1.747 10.35,-5.242Z" style="fill:#5ca4b2;fill-rule:nonzero;"/></g></g></g></svg>