<?xml version="1.0" encoding="UTF-8" standalone="no"?><!DOCTYPE svg PUBLIC "-//W3C//DTD SVG 1.1//EN" "http://www.w3.org/Graphics/SVG/1.1/DTD/svg11.dtd"><svg width="100%" height="100%" viewBox="0 0 102 101" version="1.1" xmlns="http://www.w3.org/2000/svg" xmlns:xlink="http://www.w3.org/1999/xlink" xml:space="preserve" xmlns:serif="http://www.serif.com/" style="fill-rule:evenodd;clip-rule:evenodd;stroke-linejoin:round;stroke-miterlimit:2;"><rect id="Pages_C" x="0.809" y="0.144" width="100.394" height="100.394" style="fill:none;"/><g><path d="M75.554,19.735l-0,-17.314l-72.288,0l-0,78.525l23.192,0l-0,17.314l72.288,-0l-0,-78.525l-23.192,-0Zm-9.548,-0l-39.548,-0l-0,51.628l-13.644,-0c-0,-0 -0,-59.358 -0,-59.358l53.192,0l-0,7.73Zm-30,68.941l-0,-59.357l53.192,-0l-0,59.357c-0,0 -53.192,0 -53.192,0Z" style="fill:#5ca4b2;"/><path d="M67.376,54.205l-0,-8.811l-9.548,0l-0,8.811l-8.778,0l-0,9.584l8.778,0l-0,8.811l9.548,0l-0,-8.811l8.778,0l0,-9.584l-8.778,0Z" style="fill:#5ca4b2;"/></g></svg>