<?xml version="1.0" encoding="UTF-8" standalone="no"?><!DOCTYPE svg PUBLIC "-//W3C//DTD SVG 1.1//EN" "http://www.w3.org/Graphics/SVG/1.1/DTD/svg11.dtd"><svg width="100%" height="100%" viewBox="0 0 101 101" version="1.1" xmlns="http://www.w3.org/2000/svg" xmlns:xlink="http://www.w3.org/1999/xlink" xml:space="preserve" xmlns:serif="http://www.serif.com/" style="fill-rule:evenodd;clip-rule:evenodd;stroke-linejoin:round;stroke-miterlimit:2;"><rect id="Pages_W" x="0.149" y="0" width="100.394" height="100.394" style="fill:none;"/><g><path d="M74.894,19.591l0,-17.313l-72.288,-0l0,78.525l23.192,-0l0,17.313l72.288,0l0,-78.525l-23.192,0Zm-9.548,0l-39.548,0l0,51.628l-13.644,-0c0,-0 0,-59.358 0,-59.358l53.192,0.001l0,7.729Zm-30,68.941l0,-59.357l53.192,-0l0,59.357c0,0 -53.192,0 -53.192,0Z" style="fill:#fff;"/><path d="M66.716,54.062l0,-8.811l-9.548,-0l0,8.811l-8.778,-0l-0,9.583l8.778,0l0,8.812l9.548,-0l0,-8.812l8.778,0l0,-9.583l-8.778,-0Z" style="fill:#fff;"/></g></svg>