<?xml version="1.0" encoding="UTF-8" standalone="no"?><!DOCTYPE svg PUBLIC "-//W3C//DTD SVG 1.1//EN" "http://www.w3.org/Graphics/SVG/1.1/DTD/svg11.dtd"><svg width="100%" height="100%" viewBox="0 0 101 101" version="1.1" xmlns="http://www.w3.org/2000/svg" xmlns:xlink="http://www.w3.org/1999/xlink" xml:space="preserve" xmlns:serif="http://www.serif.com/" style="fill-rule:evenodd;clip-rule:evenodd;stroke-linejoin:round;stroke-miterlimit:2;"><rect id="RadioFull_C" x="0.314" y="0.53" width="100.394" height="100.394" style="fill:none;"/><g><path d="M50.511,2.832c26.434,-0 47.895,21.461 47.895,47.895c-0,26.434 -21.461,47.895 -47.895,47.895c-26.435,0 -47.896,-21.461 -47.896,-47.895c0,-26.434 21.461,-47.895 47.896,-47.895Zm-0,10.246c20.779,-0 37.649,16.87 37.649,37.649c-0,20.779 -16.87,37.649 -37.649,37.649c-20.78,0 -37.65,-16.87 -37.65,-37.649c0,-20.779 16.87,-37.649 37.65,-37.649Z" style="fill:#5ca4b2;"/><circle cx="50.511" cy="50.727" r="27.199" style="fill:#5ca4b2;"/></g></svg>