<?xml version="1.0" encoding="UTF-8" standalone="no"?><!DOCTYPE svg PUBLIC "-//W3C//DTD SVG 1.1//EN" "http://www.w3.org/Graphics/SVG/1.1/DTD/svg11.dtd"><svg width="100%" height="100%" viewBox="0 0 102 102" version="1.1" xmlns="http://www.w3.org/2000/svg" xmlns:xlink="http://www.w3.org/1999/xlink" xml:space="preserve" xmlns:serif="http://www.serif.com/" style="fill-rule:evenodd;clip-rule:evenodd;stroke-linejoin:round;stroke-miterlimit:2;"><rect id="RadioFull_R" x="0.959" y="0.837" width="100.394" height="100.394" style="fill:none;"/><g><path d="M51.156,3.138c26.434,0 47.895,21.461 47.895,47.895c0,26.435 -21.461,47.896 -47.895,47.896c-26.434,-0 -47.895,-21.461 -47.895,-47.896c0,-26.434 21.461,-47.895 47.895,-47.895Zm0,10.246c20.779,0 37.65,16.87 37.65,37.649c-0,20.78 -16.871,37.65 -37.65,37.65c-20.779,-0 -37.649,-16.87 -37.649,-37.65c-0,-20.779 16.87,-37.649 37.649,-37.649Z" style="fill:#e1626b;"/><circle cx="51.156" cy="51.033" r="27.199" style="fill:#e1626b;"/></g></svg>