<?xml version="1.0" encoding="UTF-8" standalone="no"?><!DOCTYPE svg PUBLIC "-//W3C//DTD SVG 1.1//EN" "http://www.w3.org/Graphics/SVG/1.1/DTD/svg11.dtd"><svg width="100%" height="100%" viewBox="0 0 101 102" version="1.1" xmlns="http://www.w3.org/2000/svg" xmlns:xlink="http://www.w3.org/1999/xlink" xml:space="preserve" xmlns:serif="http://www.serif.com/" style="fill-rule:evenodd;clip-rule:evenodd;stroke-linejoin:round;stroke-miterlimit:2;"><rect id="Table_C" x="0.378" y="0.94" width="100.394" height="100.394" style="fill:none;"/><g><g><path d="M2.74,17.298l40.486,0l-0,-13.856l-40.486,-0l-0,13.856Z" style="fill:#5ca4b2;"/><path d="M51.864,17.298l18.888,0l0,-13.856l-18.888,-0l0,13.856Z" style="fill:#5ca4b2;"/><path d="M79.521,17.298l18.888,0l0,-13.856l-18.888,-0l0,13.856Z" style="fill:#5ca4b2;"/><path d="M2.74,44.476l40.486,-0l-0,-13.856l-40.486,-0l-0,13.856Z" style="fill:#5ca4b2;"/><path d="M51.864,44.476l18.888,-0l0,-13.856l-18.888,-0l0,13.856Z" style="fill:#5ca4b2;"/><path d="M79.521,44.476l18.888,-0l0,-13.856l-18.888,-0l0,13.856Z" style="fill:#5ca4b2;"/><path d="M2.74,98.831l40.486,0l-0,-13.856l-40.486,-0l-0,13.856Z" style="fill:#5ca4b2;"/><path d="M51.864,98.831l18.888,0l0,-13.856l-18.888,-0l0,13.856Z" style="fill:#5ca4b2;"/><path d="M79.521,98.831l18.888,0l0,-13.856l-18.888,-0l0,13.856Z" style="fill:#5ca4b2;"/><path d="M2.74,71.653l40.486,0l-0,-13.856l-40.486,0l-0,13.856Z" style="fill:#5ca4b2;"/><path d="M51.864,71.653l18.888,0l0,-13.856l-18.888,0l0,13.856Z" style="fill:#5ca4b2;"/><path d="M79.521,71.653l18.888,0l0,-13.856l-18.888,0l0,13.856Z" style="fill:#5ca4b2;"/></g></g></svg>