<?xml version="1.0" encoding="UTF-8" standalone="no"?><!DOCTYPE svg PUBLIC "-//W3C//DTD SVG 1.1//EN" "http://www.w3.org/Graphics/SVG/1.1/DTD/svg11.dtd"><svg width="100%" height="100%" viewBox="0 0 515 152" version="1.1" xmlns="http://www.w3.org/2000/svg" xmlns:xlink="http://www.w3.org/1999/xlink" xml:space="preserve" xmlns:serif="http://www.serif.com/" style="fill-rule:evenodd;clip-rule:evenodd;stroke-linejoin:round;stroke-miterlimit:2;"><rect id="Yakusu" x="0.99" y="0" width="513.017" height="151.702" style="fill:none;"/><g><path d="M0.99,139.686c0,-6.152 4.995,-11.147 11.146,-11.147c6.152,0 11.147,4.995 11.147,11.147c-0,6.152 -4.995,11.146 -11.147,11.146c-6.151,0 -11.146,-4.994 -11.146,-11.146Z" style="fill:#5ca4b2;"/><path d="M0.99,72.414c0,-6.152 4.995,-11.146 11.146,-11.146c6.152,-0 11.147,4.994 11.147,11.146c-0,6.152 -4.995,11.147 -11.147,11.147c-6.151,-0 -11.146,-4.995 -11.146,-11.147Z" style="fill:#5ca4b2;"/><path d="M66.701,69.499l0,81.333l-19.124,0l-0,-80.845l-35.482,-69.987l20.996,0l24.333,50.944l24.658,-50.944l20.182,0l-35.563,69.499Z" style="fill:#5ca4b2;fill-rule:nonzero;"/></g><g><path d="M156.829,149.179l-0,-12.37c-2.442,2.116 -4.802,4.083 -7.08,5.9c-2.279,1.818 -4.598,3.391 -6.958,4.72c-2.36,1.33 -4.802,2.374 -7.324,3.133c-2.523,0.76 -5.222,1.14 -8.098,1.14c-4.015,-0 -7.514,-0.611 -10.498,-1.831c-2.984,-1.221 -5.466,-2.984 -7.446,-5.29c-1.98,-2.306 -3.459,-5.1 -4.435,-8.382c-0.977,-3.282 -1.465,-6.958 -1.465,-11.027c-0,-4.449 0.651,-8.328 1.953,-11.638c1.302,-3.309 3.337,-6.117 6.103,-8.422c2.767,-2.306 6.307,-4.137 10.621,-5.494c4.313,-1.356 9.48,-2.332 15.503,-2.929l19.124,-1.872l-0,-4.313c-0,-3.581 -0.407,-6.633 -1.221,-9.155c-0.814,-2.523 -2.102,-4.598 -3.865,-6.226c-1.764,-1.628 -4.015,-2.808 -6.755,-3.54c-2.74,-0.732 -6.009,-1.099 -9.806,-1.099c-3.201,0 -5.982,0.285 -8.342,0.855c-2.36,0.57 -4.394,1.329 -6.103,2.278c-1.709,0.95 -3.133,2.049 -4.273,3.296c-1.139,1.248 -2.116,2.55 -2.929,3.907l-8.383,-5.127c1.194,-1.953 2.618,-3.798 4.273,-5.534c1.655,-1.736 3.689,-3.255 6.103,-4.557c2.415,-1.303 5.236,-2.333 8.464,-3.093c3.228,-0.759 7.012,-1.139 11.352,-1.139c5.751,-0 10.648,0.542 14.69,1.627c4.042,1.085 7.351,2.808 9.928,5.168c2.577,2.36 4.449,5.425 5.615,9.196c1.167,3.771 1.75,8.369 1.75,13.794l-0,58.024l-10.498,0Zm-0,-45.654l-15.3,1.465c-4.882,0.488 -9.046,1.18 -12.491,2.075c-3.446,0.895 -6.253,2.116 -8.423,3.662c-2.17,1.546 -3.757,3.472 -4.761,5.778c-1.004,2.306 -1.506,5.086 -1.506,8.341c0,6.185 1.248,10.675 3.744,13.469c2.496,2.794 6.402,4.191 11.719,4.191c2.007,-0 3.974,-0.299 5.9,-0.895c1.926,-0.597 3.947,-1.506 6.063,-2.727c2.115,-1.22 4.394,-2.794 6.835,-4.72c2.442,-1.926 5.182,-4.191 8.22,-6.795l-0,-23.844Z" style="fill-rule:nonzero;"/><path d="M246.673,149.179l-30.192,-39.795l-9.685,10.661l0,29.134l-10.498,0l0,-121.175l10.498,-0l0,79.183l38.168,-43.376l13.02,0l-34.668,38.33l36.54,47.038l-13.183,0Z" style="fill-rule:nonzero;"/><path d="M331.796,149.179l0,-13.509c-2.387,2.279 -4.815,4.408 -7.283,6.388c-2.469,1.98 -4.964,3.676 -7.487,5.087c-2.523,1.41 -5.046,2.522 -7.569,3.336c-2.522,0.814 -5.059,1.221 -7.609,1.221c-4.611,-0 -8.395,-0.678 -11.352,-2.035c-2.957,-1.356 -5.303,-3.35 -7.04,-5.981c-1.736,-2.631 -2.943,-5.86 -3.621,-9.684c-0.678,-3.825 -1.017,-8.206 -1.017,-13.143l-0,-57.048l10.498,0l-0,53.223c-0,4.774 0.203,8.748 0.61,11.922c0.407,3.174 1.14,5.724 2.197,7.65c1.058,1.926 2.51,3.282 4.354,4.069c1.845,0.786 4.178,1.18 6.999,1.18c3.852,-0 8.219,-1.411 13.102,-4.232c4.883,-2.821 9.956,-6.755 15.218,-11.8l0,-62.012l10.498,0l0,85.368l-10.498,0Z" style="fill-rule:nonzero;"/><path d="M426.848,127.369c0,4.015 -0.691,7.541 -2.075,10.58c-1.383,3.038 -3.391,5.574 -6.022,7.609c-2.631,2.034 -5.832,3.567 -9.603,4.598c-3.77,1.03 -8.043,1.546 -12.817,1.546c-4.395,-0 -8.247,-0.475 -11.556,-1.424c-3.31,-0.95 -6.171,-2.157 -8.586,-3.622c-2.414,-1.465 -4.394,-3.079 -5.941,-4.842c-1.546,-1.763 -2.726,-3.486 -3.54,-5.168l8.464,-5.289c1.899,3.418 4.571,6.158 8.016,8.219c3.445,2.062 7.88,3.093 13.306,3.093c2.821,-0 5.452,-0.231 7.893,-0.692c2.442,-0.461 4.558,-1.262 6.348,-2.401c1.79,-1.139 3.201,-2.672 4.232,-4.598c1.031,-1.926 1.546,-4.354 1.546,-7.283c0,-2.279 -0.325,-4.246 -0.976,-5.9c-0.651,-1.655 -1.804,-3.12 -3.459,-4.395c-1.655,-1.275 -3.893,-2.428 -6.714,-3.459c-2.821,-1.03 -6.429,-2.116 -10.824,-3.255c-4.557,-1.193 -8.477,-2.468 -11.759,-3.825c-3.282,-1.356 -5.995,-2.997 -8.138,-4.923c-2.143,-1.926 -3.73,-4.232 -4.761,-6.918c-1.031,-2.685 -1.546,-5.954 -1.546,-9.806c0,-3.147 0.583,-6.171 1.75,-9.074c1.166,-2.902 2.957,-5.439 5.371,-7.609c2.414,-2.17 5.439,-3.906 9.074,-5.208c3.635,-1.302 7.921,-1.953 12.858,-1.953c3.743,-0 7.093,0.407 10.05,1.22c2.957,0.814 5.575,1.913 7.853,3.296c2.279,1.384 4.232,2.998 5.86,4.842c1.627,1.845 2.984,3.771 4.069,5.778l-8.545,5.046c-0.814,-1.519 -1.804,-2.957 -2.971,-4.313c-1.166,-1.356 -2.522,-2.536 -4.069,-3.54c-1.546,-1.004 -3.323,-1.79 -5.33,-2.36c-2.007,-0.57 -4.313,-0.855 -6.917,-0.855c-5.805,0 -10.376,1.275 -13.713,3.825c-3.336,2.55 -5.005,6.131 -5.005,10.742c0,2.225 0.299,4.124 0.895,5.697c0.597,1.573 1.601,2.943 3.012,4.11c1.41,1.166 3.323,2.211 5.737,3.133c2.414,0.922 5.439,1.872 9.074,2.848c5.479,1.465 10.104,2.957 13.875,4.476c3.771,1.519 6.809,3.282 9.115,5.29c2.305,2.007 3.96,4.354 4.964,7.039c1.004,2.686 1.505,5.927 1.505,9.725Z" style="fill-rule:nonzero;"/><path d="M503.509,149.179l-0,-13.509c-2.388,2.279 -4.815,4.408 -7.284,6.388c-2.469,1.98 -4.964,3.676 -7.487,5.087c-2.523,1.41 -5.046,2.522 -7.568,3.336c-2.523,0.814 -5.059,1.221 -7.609,1.221c-4.612,-0 -8.396,-0.678 -11.353,-2.035c-2.957,-1.356 -5.303,-3.35 -7.039,-5.981c-1.736,-2.631 -2.944,-5.86 -3.622,-9.684c-0.678,-3.825 -1.017,-8.206 -1.017,-13.143l0,-57.048l10.498,0l0,53.223c0,4.774 0.204,8.748 0.61,11.922c0.407,3.174 1.14,5.724 2.198,7.65c1.058,1.926 2.509,3.282 4.354,4.069c1.844,0.786 4.177,1.18 6.998,1.18c3.852,-0 8.22,-1.411 13.102,-4.232c4.883,-2.821 9.956,-6.755 15.219,-11.8l-0,-62.012l10.498,0l-0,85.368l-10.498,0Z" style="fill-rule:nonzero;"/></g></svg>